<svg width="178" height="28" viewBox="0 0 178 28" fill="none" xmlns="http://www.w3.org/2000/svg">
<path fill-rule="evenodd" clip-rule="evenodd" d="M27.7815 27.7815H13.8908L4.16723 27.7814C1.86573 27.7814 0 25.9157 0 23.6142L0.00014429 13.827C0.0344688 6.1847 6.24036 0 13.8908 0H27.7815L27.8452 0.000144511L37.5049 0C39.8064 0 41.6721 1.86573 41.6721 4.16723L41.6723 13.8908C41.6723 21.5624 35.4532 27.7815 27.7815 27.7815ZM10.4181 5.5563C5.81508 5.5563 2.08361 9.28777 2.08361 13.8908C2.08361 18.4938 5.81508 22.2252 10.4181 22.2252H31.2542C35.8572 22.2252 39.5887 18.4938 39.5887 13.8908C39.5887 9.28777 35.8572 5.5563 31.2542 5.5563H10.4181ZM17.039 16.8964L17.8178 15.1831C18.1402 14.474 17.8164 13.6384 17.1004 13.3316L9.63906 10.1338C9.07172 9.89067 8.41199 10.0511 8.01961 10.5275L7.05256 11.7018C6.59781 12.254 6.63678 13.0613 7.1426 13.5671L10.8794 17.3039C11.1399 17.5644 11.4932 17.7107 11.8616 17.7107H15.7745C16.3192 17.7107 16.8136 17.3923 17.039 16.8964ZM24.6332 16.8964L23.8545 15.1831C23.5321 14.474 23.8558 13.6384 24.5718 13.3316L32.0332 10.1338C32.6006 9.89067 33.2603 10.0511 33.6527 10.5275L34.6197 11.7018C35.0745 12.254 35.0355 13.0613 34.5297 13.5671L30.7929 17.3039C30.5324 17.5644 30.1791 17.7107 29.8107 17.7107H25.8978C25.3531 17.7107 24.8587 17.3923 24.6332 16.8964ZM158.881 18.4435C159.237 17.5731 159.415 16.6196 159.415 15.583V12.3307C159.415 11.302 159.237 10.3525 158.881 9.48202C158.525 8.60367 158.03 7.85194 157.397 7.22681C156.764 6.59377 156.012 6.0992 155.142 5.74311C154.279 5.38703 153.338 5.20898 152.317 5.20898H148.139C147.118 5.20898 146.172 5.38703 145.302 5.74311C144.431 6.0992 143.68 6.59377 143.047 7.22681C142.414 7.85194 141.915 8.60367 141.551 9.48202C141.195 10.3525 141.017 11.302 141.017 12.3307V15.583C141.017 16.6196 141.195 17.5731 141.551 18.4435C141.915 19.314 142.414 20.0657 143.047 20.6987C143.68 21.3318 144.431 21.8264 145.302 22.1824C146.172 22.5306 147.118 22.7047 148.139 22.7047H152.317C153.338 22.7047 154.279 22.5306 155.142 22.1824C156.012 21.8264 156.764 21.3318 157.397 20.6987C158.03 20.0657 158.525 19.314 158.881 18.4435ZM156.032 10.6808C156.23 11.1715 156.329 11.7214 156.329 12.3307V15.583C156.329 16.1923 156.23 16.7462 156.032 17.2447C155.842 17.7353 155.569 18.1587 155.213 18.5147C154.857 18.8629 154.43 19.1359 153.931 19.3337C153.44 19.5237 152.894 19.6186 152.293 19.6186H148.139C147.537 19.6186 146.987 19.5237 146.489 19.3337C145.998 19.1359 145.575 18.8629 145.219 18.5147C144.863 18.1587 144.586 17.7353 144.388 17.2447C144.198 16.7462 144.103 16.1923 144.103 15.583V12.3307C144.103 11.7214 144.198 11.1715 144.388 10.6808C144.586 10.1823 144.863 9.75898 145.219 9.4108C145.575 9.05472 145.998 8.78172 146.489 8.59181C146.987 8.39398 147.537 8.29507 148.139 8.29507H152.317C152.91 8.29507 153.452 8.39398 153.943 8.59181C154.441 8.78172 154.865 9.05472 155.213 9.4108C155.569 9.75898 155.842 10.1823 156.032 10.6808ZM138.655 19.951C138.789 19.5157 138.857 19.1082 138.857 18.7284V18.1349C138.857 17.5335 138.789 16.9836 138.655 16.4851C138.52 15.9865 138.338 15.5394 138.109 15.1438C137.879 14.7481 137.61 14.4 137.302 14.0993C137.001 13.7986 136.677 13.5414 136.329 13.3278C136.732 12.7659 137.025 12.1725 137.207 11.5473C137.389 10.9143 137.48 10.3248 137.48 9.77876V9.19715C137.48 8.50872 137.353 7.92711 137.1 7.45233C136.855 6.97755 136.542 6.59377 136.162 6.30098C135.79 6.00029 135.387 5.78268 134.952 5.64816C134.516 5.51364 134.109 5.44638 133.729 5.44638H123.403C123.181 5.44638 122.975 5.48594 122.785 5.56507C122.595 5.6442 122.429 5.75498 122.287 5.89742C122.152 6.03985 122.045 6.20603 121.966 6.39594C121.887 6.58585 121.848 6.78763 121.848 7.00129V20.9124C121.848 21.134 121.887 21.3397 121.966 21.5296C122.045 21.7195 122.152 21.8857 122.287 22.0281C122.429 22.1627 122.595 22.2695 122.785 22.3486C122.975 22.4277 123.181 22.4673 123.403 22.4673H135.118C135.806 22.4673 136.388 22.3447 136.863 22.0994C137.337 21.8461 137.721 21.5336 138.014 21.1617C138.315 20.7897 138.528 20.3862 138.655 19.951ZM135.581 17.0548C135.707 17.3713 135.771 17.7314 135.771 18.1349V18.7047C135.771 18.8708 135.747 19.0014 135.699 19.0964C135.652 19.1913 135.597 19.2586 135.533 19.2981C135.47 19.3377 135.399 19.3614 135.32 19.3694C135.24 19.3773 135.173 19.3812 135.118 19.3812H124.934V8.53246H133.729C134.156 8.53246 134.37 8.75402 134.37 9.19715V9.77876C134.37 10.1823 134.307 10.5463 134.18 10.8708C134.061 11.1873 133.887 11.4603 133.658 11.6898C133.428 11.9192 133.151 12.0973 132.827 12.2239C132.503 12.3426 132.139 12.4019 131.735 12.4019H126.168V15.5118H133.124C133.527 15.5118 133.891 15.5751 134.216 15.7017C134.54 15.8204 134.817 15.9944 135.047 16.2239C135.276 16.4534 135.454 16.7304 135.581 17.0548ZM177.611 8.53246H170.81V22.4673H167.723V8.53246H160.91V5.44638H177.611V8.53246ZM73.8089 15.583C73.8089 16.6196 73.6309 17.5731 73.2748 18.4435C72.9187 19.314 72.4241 20.0657 71.7911 20.6987C71.1581 21.3318 70.4063 21.8264 69.5359 22.1824C68.6734 22.5306 67.7317 22.7047 66.7109 22.7047H62.5329C61.5121 22.7047 60.5665 22.5306 59.696 22.1824C58.8256 21.8264 58.0739 21.3318 57.4408 20.6987C56.8078 20.0657 56.3093 19.314 55.9453 18.4435C55.5892 17.5731 55.4111 16.6196 55.4111 15.583V12.3307C55.4111 11.302 55.5892 10.3525 55.9453 9.48202C56.3093 8.60367 56.8078 7.85194 57.4408 7.22681C58.0739 6.59377 58.8256 6.0992 59.696 5.74311C60.5665 5.38703 61.5121 5.20898 62.5329 5.20898H66.7109C67.7317 5.20898 68.6734 5.38703 69.5359 5.74311C70.4063 6.0992 71.1581 6.59377 71.7911 7.22681C72.4241 7.85194 72.9187 8.60367 73.2748 9.48202C73.6309 10.3525 73.8089 11.302 73.8089 12.3307V15.583ZM70.7228 12.3307C70.7228 11.7214 70.6239 11.1715 70.4261 10.6808C70.2362 10.1823 69.9632 9.75898 69.6071 9.4108C69.2589 9.05472 68.8356 8.78172 68.3371 8.59181C67.8465 8.39398 67.3044 8.29507 66.7109 8.29507H62.5329C61.9315 8.29507 61.3815 8.39398 60.883 8.59181C60.3924 8.78172 59.969 9.05472 59.613 9.4108C59.2569 9.75898 58.9799 10.1823 58.7821 10.6808C58.5922 11.1715 58.4972 11.7214 58.4972 12.3307V15.583C58.4972 16.1923 58.5922 16.7462 58.7821 17.2447C58.9799 17.7353 59.2569 18.1587 59.613 18.5147C59.969 18.8629 60.3924 19.1359 60.883 19.3337C61.3815 19.5237 61.9315 19.6186 62.5329 19.6186H66.6872C67.2886 19.6186 67.8346 19.5237 68.3252 19.3337C68.8237 19.1359 69.251 18.8629 69.6071 18.5147C69.9632 18.1587 70.2362 17.7353 70.4261 17.2447C70.6239 16.7462 70.7228 16.1923 70.7228 15.583V12.3307ZM93.8685 21.1498C93.8685 21.3714 93.825 21.5771 93.7379 21.767C93.6588 21.9569 93.548 22.1231 93.4056 22.2655C93.271 22.4 93.1088 22.5069 92.9189 22.586C92.729 22.6651 92.5272 22.7047 92.3136 22.7047C92.1236 22.7047 91.9298 22.6691 91.7319 22.5979C91.542 22.5267 91.3719 22.4119 91.2216 22.2537L79.9455 10.4791V22.4673H76.8594V6.7639C76.8594 6.44737 76.9464 6.1625 77.1205 5.90929C77.3025 5.64816 77.532 5.45429 77.809 5.32768C78.1018 5.20898 78.4025 5.18129 78.7111 5.24459C79.0197 5.29998 79.2848 5.44242 79.5063 5.6719L90.7824 17.4346V5.44638H93.8685V21.1498ZM101.714 15.5118H111.459V12.4019H101.714V15.5118ZM101.714 22.4673H112.848V19.3812H101.738C101.327 19.3812 101.014 19.2744 100.8 19.0607C100.587 18.8471 100.48 18.5385 100.48 18.1349V8.53246H112.848V5.44638H98.9486C98.7271 5.44638 98.5213 5.48594 98.3314 5.56507C98.1415 5.6442 97.9753 5.75498 97.8329 5.89742C97.6984 6.03985 97.5916 6.20603 97.5124 6.39594C97.4333 6.58585 97.3937 6.78763 97.3937 7.00129V18.1349C97.3937 18.9341 97.5362 19.6107 97.821 20.1646C98.1138 20.7106 98.4739 21.1577 98.9012 21.5059C99.3364 21.8461 99.8072 22.0914 100.314 22.2418C100.82 22.3921 101.287 22.4673 101.714 22.4673Z" fill="#F2F2FA"/>
</svg>
